<?xml version="1.0" encoding="UTF-8"?>
<svg id="Layer_1" data-name="Layer 1" xmlns="http://www.w3.org/2000/svg" width="32" height="24" version="1.1" viewBox="0 0 32 24">
  <defs>
    <style>
      .cls-1 {
        fill: #e52320;
      }

      .cls-1, .cls-2 {
        stroke-width: 0px;
      }

      .cls-2 {
        fill: #fff;
      }
    </style>
  </defs>
  <rect class="cls-1" width="32" height="24"/>
  <rect class="cls-2" width="32" height="4.5"/>
  <path id="path835" class="cls-2" d="M16,6.2c-.2,0-.4,0-.4.3,0,0-.3.3-.5.4h-.3c0,.2,0,.5.2.8v.8c0,0,0,.1,0,.1l-1-.3h-.5c0,.1-.1.2-.2.3,0,0-.2,0-.3,0h-.2c-.2,0-.2.2,0,.4h.4c.1,0,.2.1.2.3,0,.2.1.3.3.2.7,0,.9.4.9.8,0,1.6-.3,3.1-.9,5.7-.8,2.5-1.8,4.6-2.6,5.5,1-.3,3.3-4.1,3.8-6.7.4-1.7.5-2,1-4.5v-.2c.1,0,.3.2.3.2.5,2.5.6,2.8,1,4.5.5,2.6,2.8,6.3,3.8,6.7-.8-.9-1.8-3-2.6-5.5-.6-2.6-.9-4.1-.9-5.7,0-.4.2-.8.9-.8.2,0,.3,0,.3-.2,0-.1,0-.2.2-.3h.4c.2-.2.3-.4,0-.4h-.2c-.1,0-.2,0-.3,0,0,0-.2-.2-.2-.3h-.5s-1,.3-1,.3c0,0-.1,0-.1-.1v-.8c.2-.3.3-.5.3-.8h-.3c-.2,0-.5-.3-.5-.4,0-.2-.2-.3-.4-.3h0s0,0,0,0ZM16,6.8c.2,0,.3.3.4.4.1,0,.2,0,.3,0,0,.2,0,.5,0,.7,0,.3,0,.5,0,.8l-.5.2h0s-.6-.2-.6-.2c0-.3,0-.5,0-.8,0-.2-.1-.4,0-.7.2,0,.2,0,.3,0,0-.2.2-.3.4-.4h0Z"/>
  <path id="path853" class="cls-2" d="M21.4,13.1l.4-1.2,1.1.6-.5-1.1,1.1-.5-1.1-.4.5-1.1-1.1.5-.4-1.2-.5,1.1-1.1-.5.5,1.2-1.1.4,1.2.4-.5,1.1,1.1-.5.5,1.2h0Z"/>
  <ellipse id="path855" class="cls-2" cx="10.6" cy="10.9" rx="1.3" ry="1.6"/>
</svg>